<svg width="49" height="61" viewBox="0 0 49 61" fill="none" xmlns="http://www.w3.org/2000/svg">
<path fill-rule="evenodd" clip-rule="evenodd" d="M44.9925 0.384309C45.3424 -0.0556326 45.9828 -0.128631 46.4227 0.221223C46.8517 0.562287 46.9334 1.18167 46.608 1.62259L26.2403 29.2014L47.8192 56.3379C48.5938 57.3123 48.45 58.7268 47.495 59.5252C46.4815 60.3726 44.9637 60.1907 44.1788 59.1282L24.1588 32.0201L4.13876 59.1282C3.35385 60.1907 1.83603 60.3726 0.822599 59.5252C-0.132479 58.7268 -0.276278 57.3123 0.498381 56.3379L22.0772 29.2014L1.70956 1.62259C1.38412 1.18167 1.46591 0.562287 1.89486 0.221223C2.33481 -0.128631 2.97519 -0.0556326 3.32504 0.384309L24.1588 26.5838L44.9925 0.384309Z" fill="white"/>
</svg>
