<svg width="38" height="30" viewBox="0 0 38 30" fill="none" xmlns="http://www.w3.org/2000/svg">
<path d="M37.9514 3.55158C36.5784 4.15453 35.1028 4.5606 33.5542 4.74364C35.1355 3.80691 36.3498 2.3226 36.9205 0.553733C35.4418 1.42125 33.8029 2.05189 32.0584 2.39182C30.6636 0.919811 28.6718 0 26.4701 0C21.5272 0 17.895 4.56214 19.0114 9.29809C12.6504 8.98277 7.00928 5.96801 3.23248 1.38587C1.22669 4.78979 2.19227 9.24272 5.60056 11.4976C4.34733 11.4576 3.16562 11.1177 2.13473 10.5501C2.05077 14.0587 4.593 17.3411 8.27495 18.0717C7.19742 18.3608 6.01727 18.4285 4.8169 18.2009C5.79025 21.2095 8.61702 23.3983 11.9693 23.4598C8.75074 25.9562 4.69562 27.0714 0.634277 26.5976C4.02236 28.7464 8.04794 30 12.3705 30C26.5852 30 34.6161 18.124 34.131 7.47231C35.6268 6.4033 36.9251 5.06973 37.9514 3.55158Z" fill="white"/>
</svg>
