<svg width="155" height="34" viewBox="0 0 155 34" fill="none" xmlns="http://www.w3.org/2000/svg">
<path d="M31.2067 7.87566L31.62 7.04137C32.2658 5.78993 32.7825 5.03385 33.2217 4.79921C33.635 4.53849 34.1517 4.40814 34.6942 4.40814C35.3658 4.40814 35.7275 4.56457 35.7792 4.87743C35.8308 5.19028 35.5725 5.92029 35.03 7.04137L34.3583 8.31888C37.7425 8.81424 41.0492 9.3096 44.2008 9.8571C45.1825 7.87566 45.8025 6.46779 46.0608 5.60743C46.3708 4.61671 46.19 3.67813 45.5442 2.81776C44.9242 1.98347 43.8392 1.35775 42.2892 0.914536C40.765 0.49739 38.905 0.288818 36.7092 0.288818C34.3842 0.288818 32.2658 0.523465 30.3025 0.966682C28.3392 1.43597 26.6342 2.06169 25.1875 2.89598C23.7408 3.73027 22.6558 4.66885 21.9583 5.68564C21.7775 5.94636 21.5708 6.28529 21.3642 6.62422C24.7225 7.0153 28.0033 7.43244 31.2067 7.87566ZM23.9475 25.6044C26.2467 25.6044 28.3908 25.3697 30.3542 24.9265C32.3175 24.4833 34.0225 23.8315 35.4692 22.9972C36.9158 22.1368 37.975 21.2243 38.6983 20.2075C39.3958 19.1907 40.3775 17.47 41.6175 15.0193L43.71 10.8478L43.7358 10.7957C40.61 10.196 37.3292 9.62246 33.9967 9.07495L29.3983 18.174C28.675 19.6079 28.1067 20.5204 27.7192 20.8854C27.3058 21.2765 26.7633 21.459 26.0142 21.459C25.2908 21.459 24.9292 21.3025 24.9033 20.9636C24.8775 20.6247 25.2133 19.7643 25.9367 18.3564L30.8708 8.57959C27.6417 8.08423 24.335 7.61494 21.08 7.17172C20.5375 8.13637 19.8658 9.36174 19.1167 10.8478L17.0242 15.0193C15.7583 17.5222 14.9833 19.269 14.6733 20.2858C14.3633 21.2765 14.5183 22.215 15.1642 23.0493C15.7842 23.9097 16.8692 24.5354 18.3933 24.9526C19.8917 25.3958 21.7517 25.6044 23.9475 25.6044ZM52.9067 14.0286L52.855 25.0308H62.2067L66.2883 16.9486C61.6125 14.7846 54.1467 12.8553 45.4667 11.1346L38.44 25.0569H47.3525L52.9067 14.0286ZM60.6825 13.3246C63.0592 13.9503 65.2033 14.6282 67.0892 15.3321L74.4517 0.758108H65.565L60.0367 11.6821L59.5717 0.784178H50.685L45.9575 10.1439C51.4342 11.1346 56.3942 12.1775 60.6825 13.3246ZM67.0892 15.3321L66.2883 16.9486C67.4508 17.47 68.4325 18.0175 69.2075 18.5911C73.935 21.9283 73.1858 23.7011 69.595 25.3958C63.55 28.2897 43.9167 29.7237 43.9167 29.7237C45.5442 27.8465 46.9133 25.7869 46.9133 25.7869C35.9858 30.3494 22.8883 32.383 18.1092 33.0869C40.8942 34.3384 67.9933 32.3308 76.415 26.569C80.6258 23.6751 77.2158 19.0604 67.0892 15.3321ZM10.9275 5.50314L0 4.64278C6.4325 5.34671 13.7175 6.181 21.08 7.1978L21.4158 6.65029L10.9275 5.50314ZM75.6658 2.24419C75.7692 2.00955 75.8983 1.82704 76.0792 1.67062C76.26 1.51419 76.4667 1.38382 76.6733 1.30561C76.9058 1.2274 77.1383 1.17525 77.3967 1.17525C77.655 1.17525 77.8875 1.2274 78.12 1.30561C78.3525 1.38382 78.5592 1.51419 78.7142 1.67062C78.895 1.82704 79.0242 2.03562 79.1275 2.24419C79.2308 2.47883 79.2825 2.73955 79.2825 3.00027C79.2825 3.28705 79.2308 3.54777 79.1275 3.78241C79.0242 4.01706 78.895 4.19956 78.7142 4.38206C78.5333 4.53849 78.3525 4.66885 78.12 4.74707C77.8875 4.82528 77.655 4.87743 77.3967 4.87743C77.1383 4.87743 76.9058 4.82528 76.6733 4.74707C76.4408 4.66885 76.2342 4.53849 76.0792 4.38206C75.8983 4.22563 75.7692 4.01706 75.6658 3.78241C75.5625 3.54777 75.5108 3.28705 75.5108 3.00027C75.5108 2.71348 75.5625 2.45276 75.6658 2.24419ZM76.105 3.59991C76.1825 3.78241 76.2858 3.93885 76.3892 4.0692C76.5183 4.19956 76.6733 4.30385 76.8283 4.38206C77.0092 4.46028 77.19 4.48635 77.3708 4.48635C77.5517 4.48635 77.7325 4.46028 77.9133 4.38206C78.0942 4.30385 78.2233 4.19956 78.3525 4.0692C78.4817 3.93885 78.585 3.78241 78.6625 3.59991C78.74 3.41741 78.7658 3.23491 78.7658 3.00027C78.7658 2.79169 78.74 2.58312 78.6625 2.40062C78.585 2.21812 78.4817 2.06169 78.3525 1.93133C78.2233 1.80097 78.0942 1.69669 77.9133 1.61847C77.7325 1.54026 77.5775 1.51418 77.3708 1.51418C77.19 1.51418 77.0092 1.54026 76.8283 1.61847C76.6475 1.69669 76.5183 1.80097 76.3892 1.93133C76.26 2.06169 76.1567 2.21812 76.105 2.40062C76.0275 2.58312 76.0017 2.76562 76.0017 3.00027C76.0017 3.20884 76.0275 3.41741 76.105 3.59991ZM77.4225 1.9574C77.6808 1.9574 77.8875 2.00954 78.0167 2.08776C78.1458 2.19205 78.2233 2.34848 78.2233 2.55705C78.2233 2.66134 78.1975 2.73955 78.1717 2.7917C78.1458 2.86991 78.0942 2.92205 78.0425 2.94812C77.9908 3.00027 77.9392 3.02634 77.8617 3.05241C77.81 3.07848 77.7325 3.07848 77.655 3.10455L78.1975 4.01706H77.7583L77.2675 3.13062H77.0092V4.01706H76.5958V1.93133H77.4225V1.9574ZM77.4225 2.81776C77.5517 2.81776 77.6292 2.79169 77.7067 2.76562C77.7842 2.73955 77.81 2.66134 77.81 2.53098C77.81 2.47884 77.7842 2.42669 77.7842 2.40062C77.7583 2.37455 77.7325 2.34848 77.6808 2.32241C77.6292 2.29633 77.6033 2.29633 77.5517 2.29633C77.5 2.29633 77.4483 2.29633 77.3967 2.29633H77.0608V2.84384H77.4225V2.81776ZM91.0367 10.4828C90.8042 10.7957 90.1325 11.5778 89.7192 11.8125C89.4092 11.995 88.97 12.1514 88.5308 12.1514H85.7925C85.3533 12.1514 84.9142 11.995 84.6042 11.8125C84.2167 11.5778 83.5192 10.7957 83.2867 10.4828C83.0542 10.1439 82.9767 9.72675 82.9767 9.36174V3.8867C82.9767 3.49563 83.0542 3.07848 83.2867 2.73955C83.4933 2.45276 84.1908 1.67061 84.6042 1.43597C84.9142 1.25347 85.3275 1.09704 85.7925 1.09704H88.5308C88.97 1.09704 89.4092 1.25347 89.7192 1.43597C90.1067 1.67061 90.8042 2.45276 91.0367 2.73955C91.2692 3.07848 91.3467 3.49563 91.3467 3.8867V9.36174C91.3467 9.75282 91.2692 10.1439 91.0367 10.4828ZM89.1508 3.8867C89.0217 3.67813 88.6858 3.31313 88.505 3.20884H85.87C85.715 3.31313 85.4308 3.59992 85.1983 3.8867V9.33567C85.405 9.59639 85.6892 9.90925 85.8442 10.0135H88.4792C88.6342 9.90925 88.9442 9.59639 89.1508 9.33567V3.8867ZM100.492 6.51993C100.337 6.78065 99.7683 7.32816 99.5358 7.51066C99.1483 7.79744 98.6575 7.9278 98.1925 7.9278H95.1442V12.0993H92.9483V1.17525H98.1667C98.6058 1.17525 99.1742 1.33168 99.51 1.5924C99.7683 1.80097 100.311 2.34848 100.466 2.58312C100.698 2.92205 100.802 3.39134 100.802 3.78241V5.32064C100.828 5.76386 100.724 6.15493 100.492 6.51993ZM98.6317 3.73027C98.5542 3.57384 98.3475 3.39134 98.1667 3.28705H95.1183V5.78993H98.1667C98.2183 5.78993 98.5283 5.52921 98.6317 5.34671V3.73027ZM106.562 3.28705V12.0732H104.367V3.28705H101.448V1.14918H109.456V3.28705H106.562ZM110.67 12.0732V1.14918H112.866V12.0732H110.67ZM121.985 12.0732V5.50314C121.365 6.8328 120.719 8.16245 120.125 9.46603H118.704L116.844 5.52922V12.0732H114.648V1.14918H117.025L119.427 6.10279C120.228 4.46028 121.003 2.76562 121.804 1.14918H124.181V12.0732H121.985ZM133.739 10.4828C133.533 10.7957 132.835 11.5778 132.448 11.8125C132.138 11.995 131.698 12.1514 131.259 12.1514H128.702C128.263 12.1514 127.823 11.995 127.513 11.8125C127.126 11.5778 126.428 10.7957 126.196 10.4828C125.963 10.1439 125.886 9.72675 125.886 9.36174V1.14918H128.082V9.33567C128.288 9.59639 128.598 9.93532 128.753 10.0135H131.208C131.363 9.93532 131.647 9.62246 131.853 9.33567V1.12311H134.049V9.33567C134.023 9.75282 133.972 10.1439 133.739 10.4828ZM142.962 12.0732V5.50314C142.342 6.8328 141.696 8.16245 141.102 9.46603H139.655L137.795 5.52922V12.0732H135.625V1.14918H138.002L140.404 6.10279C141.205 4.46028 141.98 2.76562 142.781 1.14918H145.158V12.0732H142.962ZM88.6858 24.744L85.1983 18.3304V24.744H83.0025V13.82H85.25L88.6858 20.3379V13.82H90.8817V24.744H88.6858ZM100.414 23.1536C100.208 23.4665 99.51 24.2486 99.1225 24.4833C98.8125 24.6658 98.3733 24.8222 97.9342 24.8222H95.3767C94.9375 24.8222 94.4983 24.6658 94.1883 24.4833C93.8008 24.2486 93.1033 23.4665 92.8708 23.1536C92.6383 22.8147 92.5608 22.3976 92.5608 22.0325V13.82H94.7567V22.0065C94.9633 22.2672 95.2733 22.6061 95.4283 22.6843H97.8825C98.0375 22.6061 98.3217 22.2933 98.5283 22.0065V13.7939H100.724V22.0065C100.724 22.4236 100.647 22.8147 100.414 23.1536ZM106.924 15.9579V24.744H104.728V15.9579H101.809V13.82H109.818V15.9579H106.924ZM118.498 19.1647C118.343 19.4254 117.774 19.9729 117.542 20.1554C117.387 20.2597 117.258 20.3379 117.103 20.4161C117.981 22.0586 119.427 24.744 119.427 24.744H116.999L114.855 20.5725H113.124V24.744H110.928V13.82H116.173C116.612 13.82 117.18 13.9764 117.516 14.2371C117.774 14.4457 118.317 14.9932 118.472 15.2279C118.704 15.5668 118.808 16.0361 118.808 16.4272V17.9654C118.833 18.4347 118.73 18.8257 118.498 19.1647ZM116.638 16.4011C116.56 16.2446 116.353 16.0622 116.173 15.9579H113.15V18.4607H116.198C116.25 18.4607 116.56 18.2 116.663 18.0175V16.4011H116.638ZM120.616 24.744V13.82H122.812V24.744H120.616ZM129.167 15.9579V24.744H126.971V15.9579H124.052V13.82H132.06V15.9579H129.167ZM133.274 24.744V13.82H135.47V24.744H133.274ZM145.235 23.1536C145.003 23.4665 144.331 24.2486 143.917 24.4833C143.607 24.6658 143.168 24.8222 142.729 24.8222H140.017C139.578 24.8222 139.138 24.6658 138.828 24.4833C138.441 24.2486 137.743 23.4665 137.511 23.1536C137.278 22.8147 137.201 22.3976 137.201 22.0325V16.5575C137.201 16.1664 137.278 15.7493 137.511 15.4104C137.717 15.1236 138.415 14.3414 138.828 14.1068C139.138 13.9243 139.552 13.7678 140.017 13.7678H142.755C143.194 13.7678 143.633 13.9243 143.943 14.1068C144.331 14.3414 145.028 15.1236 145.261 15.4104C145.493 15.7493 145.571 16.1664 145.571 16.5575V22.0325C145.519 22.4236 145.468 22.8147 145.235 23.1536ZM143.349 16.5575C143.22 16.3489 142.884 15.9839 142.703 15.8796H140.068C139.913 15.9839 139.629 16.2707 139.397 16.5575V22.0065C139.603 22.2672 139.887 22.5801 140.042 22.6843H142.678C142.833 22.5801 143.143 22.2672 143.349 22.0065V16.5575ZM152.804 24.744L149.317 18.3304V24.744H147.121V13.82H149.368L152.804 20.3379V13.82H155V24.744H152.804Z" fill="white"/>
</svg>
