<svg width="31" height="30" viewBox="0 0 31 30" fill="none" xmlns="http://www.w3.org/2000/svg">
<path d="M15.6343 2.70375C19.6393 2.70375 20.1143 2.71875 21.6968 2.79125C25.7618 2.97625 27.6605 4.905 27.8455 8.94C27.918 10.5212 27.9318 10.9963 27.9318 15.0013C27.9318 19.0075 27.9168 19.4813 27.8455 21.0625C27.6593 25.0938 25.7655 27.0262 21.6968 27.2112C20.1143 27.2837 19.6418 27.2988 15.6343 27.2988C11.6293 27.2988 11.1543 27.2837 9.57303 27.2112C5.49803 27.025 3.60928 25.0875 3.42428 21.0613C3.35178 19.48 3.33678 19.0063 3.33678 15C3.33678 10.995 3.35303 10.5212 3.42428 8.93875C3.61053 4.905 5.50428 2.975 9.57303 2.79C11.1555 2.71875 11.6293 2.70375 15.6343 2.70375ZM15.6343 0C11.5605 0 11.0505 0.0175 9.45053 0.09C4.00303 0.34 0.975527 3.3625 0.725527 8.815C0.651777 10.4163 0.634277 10.9262 0.634277 15C0.634277 19.0737 0.651777 19.585 0.724277 21.185C0.974277 26.6325 3.99678 29.66 9.44928 29.91C11.0505 29.9825 11.5605 30 15.6343 30C19.708 30 20.2193 29.9825 21.8193 29.91C27.2618 29.66 30.2968 26.6375 30.543 21.185C30.6168 19.585 30.6343 19.0737 30.6343 15C30.6343 10.9262 30.6168 10.4163 30.5443 8.81625C30.2993 3.37375 27.273 0.34125 21.8205 0.09125C20.2193 0.0175 19.708 0 15.6343 0V0ZM15.6343 7.2975C11.3805 7.2975 7.93178 10.7463 7.93178 15C7.93178 19.2537 11.3805 22.7038 15.6343 22.7038C19.888 22.7038 23.3368 19.255 23.3368 15C23.3368 10.7463 19.888 7.2975 15.6343 7.2975ZM15.6343 20C12.873 20 10.6343 17.7625 10.6343 15C10.6343 12.2387 12.873 10 15.6343 10C18.3955 10 20.6343 12.2387 20.6343 15C20.6343 17.7625 18.3955 20 15.6343 20ZM23.6418 5.19375C22.6468 5.19375 21.8405 6 21.8405 6.99375C21.8405 7.9875 22.6468 8.79375 23.6418 8.79375C24.6355 8.79375 25.4405 7.9875 25.4405 6.99375C25.4405 6 24.6355 5.19375 23.6418 5.19375Z" fill="white"/>
</svg>
