<svg width="192" height="41" viewBox="0 0 192 41" fill="none" xmlns="http://www.w3.org/2000/svg">
<path d="M38.656 9.38199L39.168 8.35029C39.968 6.80274 40.608 5.86777 41.152 5.57761C41.664 5.2552 42.304 5.094 42.976 5.094C43.808 5.094 44.256 5.28744 44.32 5.67433C44.384 6.06122 44.064 6.96395 43.392 8.35029L42.56 9.93008C46.752 10.5426 50.848 11.1552 54.752 11.8323C55.968 9.38199 56.736 7.641 57.056 6.57706C57.44 5.35192 57.216 4.19126 56.416 3.12733C55.648 2.09563 54.304 1.32186 52.384 0.77377C50.496 0.257922 48.192 0 45.472 0C42.592 0 39.968 0.290166 37.536 0.838255C35.104 1.41858 32.992 2.19235 31.2 3.22405C29.408 4.25575 28.064 5.4164 27.2 6.67378C26.976 6.99619 26.72 7.41532 26.464 7.83444C30.624 8.31805 34.688 8.8339 38.656 9.38199ZM29.664 31.3055C32.512 31.3055 35.168 31.0154 37.6 30.4673C40.032 29.9192 42.144 29.1132 43.936 28.0815C45.728 27.0175 47.04 25.8891 47.936 24.6317C48.8 23.3744 50.016 21.2465 51.552 18.2159L54.144 13.0574L54.176 12.9929C50.304 12.2514 46.24 11.5421 42.112 10.865L36.416 22.117C35.52 23.8902 34.816 25.0186 34.336 25.47C33.824 25.9536 33.152 26.1793 32.224 26.1793C31.328 26.1793 30.88 25.9858 30.848 25.5667C30.816 25.1476 31.232 24.0837 32.128 22.3427L38.24 10.2525C34.24 9.63991 30.144 9.05958 26.112 8.51149C25.44 9.70439 24.608 11.2197 23.68 13.0574L21.088 18.2159C19.52 21.311 18.56 23.4711 18.176 24.7285C17.792 25.9536 17.984 27.1143 18.784 28.146C19.552 29.2099 20.896 29.9837 22.784 30.4995C24.64 31.0476 26.944 31.3055 29.664 31.3055ZM65.536 16.9907L65.472 30.5962H77.056L82.112 20.6017C76.32 17.9257 67.072 15.5399 56.32 13.4121L47.616 30.6285H58.656L65.536 16.9907ZM75.168 16.1203C78.112 16.894 80.768 17.7323 83.104 18.6028L92.224 0.58033H81.216L74.368 14.0891L73.792 0.612568H62.784L56.928 12.1869C63.712 13.4121 69.856 14.7017 75.168 16.1203ZM83.104 18.6028L82.112 20.6017C83.552 21.2465 84.768 21.9235 85.728 22.6328C91.584 26.7596 90.656 28.952 86.208 31.0476C78.72 34.6263 54.4 36.3995 54.4 36.3995C56.416 34.0782 58.112 31.5312 58.112 31.5312C44.576 37.1733 28.352 39.6881 22.432 40.5586C50.656 42.1061 84.224 39.6236 94.656 32.4984C99.872 28.9197 95.648 23.2132 83.104 18.6028ZM13.536 6.4481L0 5.38416C7.968 6.25466 16.992 7.28635 26.112 8.54373L26.528 7.86668L13.536 6.4481ZM93.728 2.41804C93.856 2.12787 94.016 1.90219 94.24 1.70875C94.464 1.5153 94.72 1.3541 94.976 1.25738C95.264 1.16066 95.552 1.09618 95.872 1.09618C96.192 1.09618 96.48 1.16066 96.768 1.25738C97.056 1.3541 97.312 1.5153 97.504 1.70875C97.728 1.90219 97.888 2.16011 98.016 2.41804C98.144 2.7082 98.208 3.03061 98.208 3.35301C98.208 3.70766 98.144 4.03006 98.016 4.32023C97.888 4.61039 97.728 4.83607 97.504 5.06176C97.28 5.2552 97.056 5.41641 96.768 5.51313C96.48 5.60985 96.192 5.67433 95.872 5.67433C95.552 5.67433 95.264 5.60985 94.976 5.51313C94.688 5.41641 94.432 5.2552 94.24 5.06176C94.016 4.86832 93.856 4.61039 93.728 4.32023C93.6 4.03006 93.536 3.70766 93.536 3.35301C93.536 2.99836 93.6 2.67596 93.728 2.41804ZM94.272 4.09454C94.368 4.32023 94.496 4.51367 94.624 4.67487C94.784 4.83608 94.976 4.96504 95.168 5.06176C95.392 5.15848 95.616 5.19072 95.84 5.19072C96.064 5.19072 96.288 5.15848 96.512 5.06176C96.736 4.96504 96.896 4.83608 97.056 4.67487C97.216 4.51367 97.344 4.32023 97.44 4.09454C97.536 3.86886 97.568 3.64317 97.568 3.35301C97.568 3.09509 97.536 2.83717 97.44 2.61148C97.344 2.3858 97.216 2.19236 97.056 2.03115C96.896 1.86995 96.736 1.74099 96.512 1.64427C96.288 1.54755 96.096 1.5153 95.84 1.5153C95.616 1.5153 95.392 1.54755 95.168 1.64427C94.944 1.74099 94.784 1.86995 94.624 2.03115C94.464 2.19236 94.336 2.3858 94.272 2.61148C94.176 2.83717 94.144 3.06285 94.144 3.35301C94.144 3.61093 94.176 3.86886 94.272 4.09454ZM95.904 2.06339C96.224 2.06339 96.48 2.12787 96.64 2.22459C96.8 2.35355 96.896 2.547 96.896 2.80492C96.896 2.93388 96.864 3.03061 96.832 3.09509C96.8 3.19181 96.736 3.25629 96.672 3.28853C96.608 3.35301 96.544 3.38525 96.448 3.4175C96.384 3.44974 96.288 3.44973 96.192 3.48198L96.864 4.61039H96.32L95.712 3.51421H95.392V4.61039H94.88V2.03115H95.904V2.06339ZM95.904 3.12733C96.064 3.12733 96.16 3.09509 96.256 3.06285C96.352 3.03061 96.384 2.93389 96.384 2.77269C96.384 2.7082 96.352 2.64372 96.352 2.61148C96.32 2.57924 96.288 2.547 96.224 2.51476C96.16 2.48252 96.128 2.48252 96.064 2.48252C96 2.48252 95.936 2.48252 95.872 2.48252H95.456V3.15957H95.904V3.12733ZM112.768 12.606C112.48 12.9929 111.648 13.9601 111.136 14.2503C110.752 14.476 110.208 14.6694 109.664 14.6694H106.272C105.728 14.6694 105.184 14.476 104.8 14.2503C104.32 13.9601 103.456 12.9929 103.168 12.606C102.88 12.1869 102.784 11.6711 102.784 11.2197V4.44919C102.784 3.96558 102.88 3.44973 103.168 3.03061C103.424 2.67596 104.288 1.70874 104.8 1.41858C105.184 1.1929 105.696 0.999458 106.272 0.999458H109.664C110.208 0.999458 110.752 1.1929 111.136 1.41858C111.616 1.70874 112.48 2.67596 112.768 3.03061C113.056 3.44973 113.152 3.96558 113.152 4.44919V11.2197C113.152 11.7033 113.056 12.1869 112.768 12.606ZM110.432 4.44919C110.272 4.19127 109.856 3.7399 109.632 3.61094H106.368C106.176 3.7399 105.824 4.09454 105.536 4.44919V11.1875C105.792 11.5099 106.144 11.8967 106.336 12.0257H109.6C109.792 11.8967 110.176 11.5099 110.432 11.1875V4.44919ZM124.48 7.70548C124.288 8.02788 123.584 8.70494 123.296 8.93062C122.816 9.28526 122.208 9.44647 121.632 9.44647H117.856V14.6049H115.136V1.09618H121.6C122.144 1.09618 122.848 1.28962 123.264 1.61203C123.584 1.86995 124.256 2.547 124.448 2.83717C124.736 3.25629 124.864 3.83662 124.864 4.32023V6.22242C124.896 6.77051 124.768 7.25411 124.48 7.70548ZM122.176 4.25575C122.08 4.0623 121.824 3.83662 121.6 3.70766H117.824V6.80275H121.6C121.664 6.80275 122.048 6.48034 122.176 6.25466V4.25575ZM132 3.70766V14.5727H129.28V3.70766H125.664V1.06394H135.584V3.70766H132ZM137.088 14.5727V1.06394H139.808V14.5727H137.088ZM151.104 14.5727V6.4481C150.336 8.09237 149.536 9.73663 148.8 11.3487H147.04L144.736 6.48034V14.5727H142.016V1.06394H144.96L147.936 7.18963C148.928 5.15848 149.888 3.06285 150.88 1.06394H153.824V14.5727H151.104ZM165.664 12.606C165.408 12.9929 164.544 13.9601 164.064 14.2503C163.68 14.476 163.136 14.6694 162.592 14.6694H159.424C158.88 14.6694 158.336 14.476 157.952 14.2503C157.472 13.9601 156.608 12.9929 156.32 12.606C156.032 12.1869 155.936 11.6711 155.936 11.2197V1.06394H158.656V11.1875C158.912 11.5099 159.296 11.929 159.488 12.0257H162.528C162.72 11.929 163.072 11.5421 163.328 11.1875V1.0317H166.048V11.1875C166.016 11.7033 165.952 12.1869 165.664 12.606ZM177.088 14.5727V6.4481C176.32 8.09237 175.52 9.73663 174.784 11.3487H172.992L170.688 6.48034V14.5727H168V1.06394H170.944L173.92 7.18963C174.912 5.15848 175.872 3.06285 176.864 1.06394H179.808V14.5727H177.088ZM109.856 30.2416L105.536 22.3104V30.2416H102.816V16.7328H105.6L109.856 24.7929V16.7328H112.576V30.2416H109.856ZM124.384 28.2749C124.128 28.6618 123.264 29.629 122.784 29.9192C122.4 30.1449 121.856 30.3383 121.312 30.3383H118.144C117.6 30.3383 117.056 30.1449 116.672 29.9192C116.192 29.629 115.328 28.6618 115.04 28.2749C114.752 27.8558 114.656 27.3399 114.656 26.8886V16.7328H117.376V26.8563C117.632 27.1787 118.016 27.5979 118.208 27.6946H121.248C121.44 27.5979 121.792 27.211 122.048 26.8563V16.7006H124.768V26.8563C124.768 27.3722 124.672 27.8558 124.384 28.2749ZM132.448 19.3765V30.2416H129.728V19.3765H126.112V16.7328H136.032V19.3765H132.448ZM146.784 23.3421C146.592 23.6645 145.888 24.3416 145.6 24.5673C145.408 24.6962 145.248 24.793 145.056 24.8897C146.144 26.9208 147.936 30.2416 147.936 30.2416H144.928L142.272 25.0831H140.128V30.2416H137.408V16.7328H143.904C144.448 16.7328 145.152 16.9263 145.568 17.2487C145.888 17.5066 146.56 18.1836 146.752 18.4738C147.04 18.8929 147.168 19.4733 147.168 19.9569V21.8591C147.2 22.4394 147.072 22.923 146.784 23.3421ZM144.48 19.9246C144.384 19.7312 144.128 19.5055 143.904 19.3765H140.16V22.4716H143.936C144 22.4716 144.384 22.1492 144.512 21.9235V19.9246H144.48ZM149.408 30.2416V16.7328H152.128V30.2416H149.408ZM160 19.3765V30.2416H157.28V19.3765H153.664V16.7328H163.584V19.3765H160ZM165.088 30.2416V16.7328H167.808V30.2416H165.088ZM179.904 28.2749C179.616 28.6618 178.784 29.629 178.272 29.9192C177.888 30.1449 177.344 30.3383 176.8 30.3383H173.44C172.896 30.3383 172.352 30.1449 171.968 29.9192C171.488 29.629 170.624 28.6618 170.336 28.2749C170.048 27.8558 169.952 27.3399 169.952 26.8886V20.1181C169.952 19.6345 170.048 19.1186 170.336 18.6995C170.592 18.3448 171.456 17.3776 171.968 17.0875C172.352 16.8618 172.864 16.6683 173.44 16.6683H176.832C177.376 16.6683 177.92 16.8618 178.304 17.0875C178.784 17.3776 179.648 18.3448 179.936 18.6995C180.224 19.1186 180.32 19.6345 180.32 20.1181V26.8886C180.256 27.3722 180.192 27.8558 179.904 28.2749ZM177.568 20.1181C177.408 19.8601 176.992 19.4088 176.768 19.2798H173.504C173.312 19.4088 172.96 19.7634 172.672 20.1181V26.8563C172.928 27.1787 173.28 27.5656 173.472 27.6946H176.736C176.928 27.5656 177.312 27.1787 177.568 26.8563V20.1181ZM189.28 30.2416L184.96 22.3104V30.2416H182.24V16.7328H185.024L189.28 24.7929V16.7328H192V30.2416H189.28Z" fill="black"/>
</svg>
